# xmcd
#
# Track frame offsets: 
#        150
#        9227
#        25206
#        44890
#        57832
#        70743
#        86338
#        97958
#        110943
#        128103
#        143228
#        153312
#
# Disc length: 2305 seconds
#
# Revision: 0
# Processed by: cddbd v1.5.2PL0 Copyright (c) Steve Scherf et al.
# Submitted via: ExactAudioCopy v0.90b4
#
DISCID=9d08ff0c
DTITLE=Canebreak - Ride
DYEAR=2005
DGENRE=Bluegrass
TTITLE0=In The Gravel Yard
TTITLE1=I'll Still Write Your Name In The Sand
TTITLE2=Ride
TTITLE3=Foresaken and Alone
TTITLE4=Jolene
TTITLE5=Rough and Rocky
TTITLE6=My Little Sweet Potato
TTITLE7=Blueberry Bramble
TTITLE8=Simple Life
TTITLE9=I Feel The Blues Moving In
TTITLE10=Colt
TTITLE11=Blue Ridge Cabin House
EXTD=
EXTT0=
EXTT1=
EXTT2=
EXTT3=
EXTT4=
EXTT5=
EXTT6=
EXTT7=
EXTT8=
EXTT9=
EXTT10=
EXTT11=
PLAYORDER=
